<svg width="28" height="28" viewBox="0 0 28 28" fill="none" xmlns="http://www.w3.org/2000/svg">
<path fill-rule="evenodd" clip-rule="evenodd" d="M14.0002 2C17.4271 2 20.3342 4.47876 20.9013 7.82202C20.9937 8.36653 20.6271 8.88282 20.0826 8.97519C19.5381 9.06756 19.0218 8.70103 18.9295 8.15652C18.5248 5.77114 16.4477 4 14.0002 4C11.5457 4 9.46462 5.78096 9.06775 8.17497C8.97742 8.71982 8.46251 9.08829 7.91766 8.99796C7.37282 8.90764 7.00435 8.39273 7.09467 7.84788C7.65092 4.4925 10.5635 2 14.0002 2ZM14.0002 16C11.9847 16 10.1051 15.1422 8.78619 13.6707C8.41757 13.2594 8.45213 12.6272 8.86339 12.2586C9.27466 11.89 9.90688 11.9245 10.2755 12.3358C11.2189 13.3884 12.5591 14 14.0002 14C15.4392 14 16.7775 13.3901 17.7208 12.3402C18.0899 11.9294 18.7222 11.8956 19.133 12.2647C19.5439 12.6338 19.5777 13.2661 19.2086 13.6769C17.8898 15.1447 16.0127 16 14.0002 16Z" fill="#4A4A4A"/>
<path d="M7.5 5C4.46243 5 2 7.46243 2 10.5C2 13.5376 4.46243 16 7.5 16C8.84077 16 10.1095 15.5172 11.102 14.6565C11.5193 14.2946 11.5642 13.6631 11.2023 13.2458C10.8405 12.8286 10.2089 12.7837 9.79168 13.1455C9.15943 13.6938 8.35475 14 7.5 14C5.567 14 4 12.433 4 10.5C4 8.567 5.567 7 7.5 7C8.05228 7 8.5 6.55228 8.5 6C8.5 5.44772 8.05228 5 7.5 5Z" fill="#4A4A4A"/>
<path d="M20.4483 5C23.4869 5 25.9502 7.46329 25.9502 10.5019C25.9502 13.5405 23.4869 16.0038 20.4483 16.0038C19.1071 16.0038 17.8379 15.5209 16.845 14.6598C16.4278 14.298 16.3829 13.6664 16.7447 13.2492C17.1066 12.8319 17.7381 12.787 18.1554 13.1488C18.788 13.6974 19.5931 14.0038 20.4483 14.0038C22.3823 14.0038 23.9502 12.4359 23.9502 10.5019C23.9502 8.56786 22.3823 7 20.4483 7C19.896 7 19.4483 6.55228 19.4483 6C19.4483 5.44772 19.896 5 20.4483 5Z" fill="#4A4A4A"/>
<path d="M10.3724 17.13C10.5353 18.1464 10.3432 18.8832 9.81348 19.3956C9.61501 19.5876 9.60977 19.9042 9.80177 20.1027C9.99377 20.3011 10.3103 20.3064 10.5088 20.1144C11.2931 19.3556 11.571 18.2897 11.3598 16.9717C11.3161 16.6991 11.0596 16.5135 10.7869 16.5572C10.5143 16.6009 10.3287 16.8573 10.3724 17.13Z" fill="#4A4A4A"/>
<path d="M17.7165 17.13C17.5536 18.1464 17.7457 18.8832 18.2754 19.3956C18.4739 19.5876 18.4791 19.9042 18.2871 20.1027C18.0951 20.3011 17.7786 20.3064 17.5801 20.1144C16.7957 19.3556 16.5179 18.2897 16.7291 16.9717C16.7728 16.6991 17.0293 16.5135 17.3019 16.5572C17.5746 16.6009 17.7602 16.8573 17.7165 17.13Z" fill="#4A4A4A"/>
<path d="M20 15V23C20 23.5523 19.5523 24 19 24H9C8.44772 24 8 23.5523 8 23V15C8 14.4477 7.55228 14 7 14C6.44772 14 6 14.4477 6 15V23C6 24.6569 7.34315 26 9 26H19C20.6569 26 22 24.6569 22 23V15C22 14.4477 21.5523 14 21 14C20.4477 14 20 14.4477 20 15Z" fill="#4A4A4A"/>
</svg>
