<svg width="22" height="21" viewBox="0 0 22 21" fill="none" xmlns="http://www.w3.org/2000/svg">
<path d="M12 2.97315C13.4903 1.63135 15.3035 1.06022 16.8838 0.854213C18.0621 0.700605 19.1394 0.74325 19.9183 0.822413C20.3096 0.862172 20.6302 0.911625 20.8563 0.951911C20.9695 0.972074 21.0593 0.990001 21.1229 1.00337C21.1531 1.00971 21.1773 1.01503 21.1954 1.01908C21.6373 1.10662 21.9745 1.48533 21.9986 1.94693C21.9995 1.96438 22 1.98192 22 1.99952V16.9995C22 17.5518 21.5523 18 21 18C20.9286 18 20.859 17.9925 20.7918 17.9783L20.7569 17.9724C20.7127 17.965 20.6443 17.9542 20.5544 17.9416C20.3745 17.9164 20.1095 17.884 19.7803 17.8576C19.1195 17.8047 18.2133 17.777 17.2259 17.8746C15.2247 18.0724 13.0966 18.7599 11.8383 20.5457C11.7817 20.6327 11.7106 20.7121 11.6257 20.78C11.5855 20.8122 11.5432 20.8411 11.4992 20.8664C11.1836 21.0486 10.8025 21.0399 10.5008 20.8664C10.4568 20.8411 10.4145 20.8122 10.3743 20.78C10.2894 20.7121 10.2183 20.6327 10.1617 20.5457C8.90336 18.7599 6.77525 18.0724 4.77414 17.8746C3.78667 17.777 2.88054 17.8047 2.21967 17.8576C1.89051 17.884 1.62546 17.9164 1.44557 17.9416C1.3557 17.9542 1.28733 17.965 1.24309 17.9724L1.20817 17.9783C1.14102 17.9925 1.07138 18 1 18C0.447715 18 0 17.5523 0 17V2C0.000131965 1.76991 0.0779738 1.55741 0.208702 1.38849C0.34388 1.21321 0.537844 1.08146 0.770037 1.02654L0.772001 1.02607L0.774614 1.02546L0.781768 1.02381L0.803689 1.01887C0.821643 1.01488 0.846236 1.00956 0.877128 1.00318C0.938892 0.990415 1.02596 0.973396 1.13561 0.954378C1.35469 0.91638 1.66517 0.870181 2.04507 0.83411C2.80183 0.762258 3.85037 0.729 5.00867 0.88895C6.60591 1.10951 8.4499 1.70714 10 3.09814V16C10 16.5523 10.4477 17 11 17C11.5523 17 12 16.5523 12 16V2.97315Z" fill="#63C74D"/>
</svg>
