<svg width="20" height="22" viewBox="0 0 20 22" fill="none" xmlns="http://www.w3.org/2000/svg">
<path fill-rule="evenodd" clip-rule="evenodd" d="M6.25 12.1014C6.25 12.1014 11.3988 5.3625 12.9842 3.88003C14.5696 2.39756 18.967 1.86169 18.967 2.01463C18.967 2.16756 18.967 5.91201 17.1347 8.03203C15.3024 10.1521 8.89 14.7421 8.89 14.7421L6.25 12.1014Z" stroke="#BCBCBC" stroke-width="2" stroke-linecap="round" stroke-linejoin="round"/>
<path d="M12.478 12.4895C12.478 13.0198 12.478 15.14 12.2125 15.9358C12.0445 16.4398 11.515 17.1635 11.1513 17.5273C10.1065 18.572 8.5 20.1785 8.5 20.1785L8.99125 15.9748" stroke="#BCBCBC" stroke-width="2" stroke-linecap="round" stroke-linejoin="round"/>
<path d="M8.689 8.73998C8.1595 8.73998 6.01525 8.71748 5.22025 8.98223C4.717 9.15098 4.01425 9.70223 3.65125 10.0652C2.60575 11.1107 1 12.7172 1 12.7172L5.23075 12.2005" stroke="#BCBCBC" stroke-width="2" stroke-linecap="round" stroke-linejoin="round"/>
<path fill-rule="evenodd" clip-rule="evenodd" d="M7.00825 15.3533C7.53925 15.8835 7.318 16.635 6.74275 17.2103C6.01075 17.9423 2.5 18.8123 2.5 18.8123C2.5 18.8123 3.3595 15.291 4.0915 14.5583C4.67425 13.9763 5.41825 13.7625 5.9485 14.2928" stroke="#BCBCBC" stroke-width="2" stroke-linecap="round" stroke-linejoin="round"/>
</svg>
