<svg width="24" height="24" viewBox="0 0 24 24" fill="none" xmlns="http://www.w3.org/2000/svg">
<path fill-rule="evenodd" clip-rule="evenodd" d="M14.0837 3H5.75033C3.90949 3 2.41699 4.4925 2.41699 6.33333V9.66667C2.41699 11.5083 3.90949 13 5.75033 13H6.58366V16.3333L10.3337 13H14.0837C15.9245 13 17.417 11.5083 17.417 9.66667V6.33333C17.417 4.4925 15.9245 3 14.0837 3Z" stroke="#BCBCBC" stroke-width="2" stroke-linecap="round" stroke-linejoin="round"/>
<path d="M11.584 16.75C11.584 17.9008 12.5165 18.8333 13.6673 18.8333H15.7507L18.2507 21.3333V18.8333H19.5007C20.6515 18.8333 21.584 17.9008 21.584 16.75V15.0833C21.584 13.9325 20.6515 13 19.5007 13" stroke="#BCBCBC" stroke-width="2" stroke-linecap="round" stroke-linejoin="round"/>
</svg>
